M48
;Layer_Color=9474304
;FILE_FORMAT=4:4
METRIC,LZ
;TYPE=PLATED
T01F00S00C0.9000
T02F00S00C3.0000
%
T01
X014625Y0019
X014875
X015125
X015375
X015625
X015875
X0158825Y0029625
X0156325
X0153825
X0151325
X0148825
X0146325
X0139916Y0031487
X0137376
X0134836
X0132296
X0129756
X0127216
X0119775Y0029665
Y0027125
Y0024585
Y0022045
X01197551Y0033835
Y0036375
Y0038915
Y0041455
Y0043995
Y0046535
Y0049075
Y0051615
X012765Y005207
Y004953
Y00469901
Y00444501
X00968951Y0043995
Y0041455
Y0038915
Y0036375
Y0033835
Y0046535
Y0049075
Y0051615
X0084425Y005083
Y004829
Y004575
X0079925Y004795
X0073525
X0073435Y00536
X0075975
X0078515
X0069725Y005058
Y00417
X0073725Y004165
X0080125
X007745Y00338
X007491
X007237
X006983
X008546Y003385
X0088
X009054
X008975Y0061875
Y0064375
Y0066875
Y0069375
X0081925Y0069425
Y0066925
Y0064425
Y0061925
X00735Y0062825
X0071
X00968951Y0061775
Y0064315
Y0066855
Y0069395
Y0059235
Y0056695
Y0054155
X01197551
Y0056695
Y0059235
Y0061775
Y0064315
Y0066855
Y0069395
X01194125Y00806025
X01168725
X01143325
X01117925
X01294671Y0074344
X0132007
X0134547
X01370871
X0139627
T02
X0175575Y0017425
X00681
Y008535
X0175575
M30
